# Blender v2.81 (sub 16) OBJ File: 'object_form.blend'
# www.blender.org
mtllib ob1.mtl
o ob1_ObjObject.002
v -0.150000 0.100000 0.050000
v -0.150000 0.000000 -0.150000
v -0.150000 -0.000000 0.150000
v -0.150000 0.100000 -0.050000
v -0.150000 0.200000 0.150000
v -0.150000 0.200000 0.050000
v -0.150000 0.200000 -0.050000
v -0.150000 0.200000 -0.150000
v -0.150000 0.300000 0.150000
v -0.150000 0.300000 0.050000
v -0.150000 0.300000 -0.050000
v -0.150000 0.300000 -0.150000
v 0.050000 0.100000 0.050000
v 0.050000 0.000000 -0.050000
v 0.050000 0.000000 0.050000
v 0.050000 0.100000 -0.050000
v 0.050000 0.200000 0.150000
v 0.050000 0.100000 0.150000
v 0.050000 0.200000 0.050000
v 0.050000 0.200000 -0.050000
v 0.050000 0.100000 -0.150000
v 0.050000 0.200000 -0.150000
v 0.050000 0.300000 0.150000
v 0.050000 0.300000 0.050000
v 0.050000 0.300000 -0.050000
v 0.050000 0.300000 -0.150000
v -0.050000 0.000000 0.050000
v -0.050000 0.000000 -0.050000
v -0.050000 0.100000 0.050000
v -0.050000 0.100000 -0.050000
v -0.050000 0.100000 0.150000
v -0.050000 0.200000 0.150000
v -0.050000 0.200000 0.050000
v -0.050000 0.100000 -0.150000
v -0.050000 0.200000 -0.050000
v -0.050000 0.200000 -0.150000
v -0.050000 0.300000 0.150000
v -0.050000 0.300000 0.050000
v -0.050000 0.300000 -0.050000
v -0.050000 0.300000 -0.150000
v 0.150000 -0.000000 0.150000
v 0.150000 0.000000 -0.150000
v 0.150000 0.100000 0.050000
v 0.150000 0.100000 -0.050000
v 0.150000 0.200000 0.150000
v 0.150000 0.200000 0.050000
v 0.150000 0.200000 -0.050000
v 0.150000 0.200000 -0.150000
v 0.150000 0.300000 0.150000
v 0.150000 0.300000 0.050000
v 0.150000 0.300000 -0.050000
v 0.150000 0.300000 -0.150000
v -0.050000 0.100000 0.150000
v -0.150000 0.200000 0.150000
v -0.150000 -0.000000 0.150000
v -0.050000 0.200000 0.150000
v -0.150000 0.300000 0.150000
v -0.050000 0.300000 0.150000
v 0.050000 0.100000 0.150000
v 0.150000 -0.000000 0.150000
v 0.050000 0.200000 0.150000
v 0.150000 0.200000 0.150000
v 0.050000 0.300000 0.150000
v 0.150000 0.300000 0.150000
v -0.050000 0.100000 -0.050000
v -0.150000 0.200000 -0.050000
v -0.150000 0.100000 -0.050000
v -0.050000 0.200000 -0.050000
v -0.150000 0.300000 -0.050000
v -0.050000 0.300000 -0.050000
v 0.050000 0.000000 -0.050000
v -0.050000 0.000000 -0.050000
v 0.050000 0.100000 -0.050000
v 0.150000 0.100000 -0.050000
v 0.050000 0.200000 -0.050000
v 0.150000 0.200000 -0.050000
v 0.050000 0.300000 -0.050000
v 0.150000 0.300000 -0.050000
v -0.150000 0.100000 0.050000
v -0.150000 0.200000 0.050000
v -0.050000 0.100000 0.050000
v -0.150000 0.300000 0.050000
v -0.050000 0.200000 0.050000
v -0.050000 0.300000 0.050000
v -0.050000 0.000000 0.050000
v 0.050000 0.000000 0.050000
v 0.050000 0.100000 0.050000
v 0.050000 0.200000 0.050000
v 0.150000 0.100000 0.050000
v 0.050000 0.300000 0.050000
v 0.150000 0.200000 0.050000
v 0.150000 0.300000 0.050000
v -0.150000 0.000000 -0.150000
v -0.150000 0.200000 -0.150000
v -0.050000 0.100000 -0.150000
v -0.150000 0.300000 -0.150000
v -0.050000 0.200000 -0.150000
v -0.050000 0.300000 -0.150000
v 0.050000 0.100000 -0.150000
v 0.150000 0.000000 -0.150000
v 0.050000 0.200000 -0.150000
v 0.050000 0.300000 -0.150000
v 0.150000 0.200000 -0.150000
v 0.150000 0.300000 -0.150000
v -0.050000 0.000000 0.050000
v 0.150000 -0.000000 0.150000
v -0.150000 -0.000000 0.150000
v 0.050000 0.000000 0.050000
v -0.050000 0.000000 -0.050000
v 0.050000 0.000000 -0.050000
v -0.150000 0.000000 -0.150000
v 0.150000 0.000000 -0.150000
v -0.050000 0.100000 0.150000
v 0.050000 0.100000 0.150000
v -0.050000 0.100000 0.050000
v 0.050000 0.100000 0.050000
v -0.150000 0.100000 0.050000
v -0.150000 0.100000 -0.050000
v -0.050000 0.100000 -0.050000
v 0.150000 0.100000 0.050000
v 0.050000 0.100000 -0.050000
v 0.150000 0.100000 -0.050000
v -0.050000 0.100000 -0.150000
v 0.050000 0.100000 -0.150000
v -0.150000 0.300000 0.150000
v -0.050000 0.300000 0.150000
v -0.150000 0.300000 0.050000
v -0.050000 0.300000 0.050000
v 0.050000 0.300000 0.150000
v 0.150000 0.300000 0.150000
v 0.050000 0.300000 0.050000
v 0.150000 0.300000 0.050000
v -0.150000 0.300000 -0.050000
v -0.050000 0.300000 -0.050000
v -0.150000 0.300000 -0.150000
v -0.050000 0.300000 -0.150000
v 0.050000 0.300000 -0.050000
v 0.150000 0.300000 -0.050000
v 0.050000 0.300000 -0.150000
v 0.150000 0.300000 -0.150000
vt 0.962891 0.500000
vt 0.962891 0.500000
vt 0.962891 0.500000
vt 0.962891 0.500000
vt 0.962891 0.500000
vt 0.962891 0.500000
vt 0.962891 0.500000
vt 0.962891 0.500000
vt 0.845703 0.500000
vt 0.845703 0.500000
vt 0.845703 0.500000
vt 0.845703 0.500000
vt 0.845703 0.500000
vt 0.845703 0.500000
vt 0.845703 0.500000
vt 0.845703 0.500000
vt 0.962891 0.500000
vt 0.962891 0.500000
vt 0.962891 0.500000
vt 0.962891 0.500000
vt 0.962891 0.500000
vt 0.962891 0.500000
vt 0.962891 0.500000
vt 0.962891 0.500000
vt 0.962891 0.500000
vt 0.962891 0.500000
vt 0.845703 0.500000
vt 0.845703 0.500000
vt 0.845703 0.500000
vt 0.845703 0.500000
vt 0.845703 0.500000
vt 0.845703 0.500000
vt 0.845703 0.500000
vt 0.845703 0.500000
vt 0.962891 0.500000
vt 0.962891 0.500000
vt 0.962891 0.500000
vt 0.962891 0.500000
vt 0.962891 0.500000
vt 0.962891 0.500000
vt 0.962891 0.500000
vt 0.962891 0.500000
vt 0.962891 0.500000
vt 0.962891 0.500000
vt 0.845703 0.500000
vt 0.845703 0.500000
vt 0.845703 0.500000
vt 0.845703 0.500000
vt 0.845703 0.500000
vt 0.845703 0.500000
vt 0.845703 0.500000
vt 0.845703 0.500000
vt 0.962891 0.500000
vt 0.962891 0.500000
vt 0.962891 0.500000
vt 0.962891 0.500000
vt 0.962891 0.500000
vt 0.962891 0.500000
vt 0.962891 0.500000
vt 0.962891 0.500000
vt 0.845703 0.500000
vt 0.845703 0.500000
vt 0.845703 0.500000
vt 0.845703 0.500000
vt 0.845703 0.500000
vt 0.845703 0.500000
vt 0.845703 0.500000
vt 0.845703 0.500000
vt 0.962891 0.500000
vt 0.962891 0.500000
vt 0.962891 0.500000
vt 0.845703 0.500000
vt 0.845703 0.500000
vt 0.845703 0.500000
vt 0.962891 0.500000
vt 0.845703 0.500000
vt 0.962891 0.500000
vt 0.962891 0.500000
vt 0.962891 0.500000
vt 0.845703 0.500000
vt 0.845703 0.500000
vt 0.845703 0.500000
vt 0.962891 0.500000
vt 0.845703 0.500000
vt 0.962891 0.500000
vt 0.962891 0.500000
vt 0.962891 0.500000
vt 0.845703 0.500000
vt 0.845703 0.500000
vt 0.845703 0.500000
vt 0.962891 0.500000
vt 0.845703 0.500000
vt 0.962891 0.500000
vt 0.962891 0.500000
vt 0.962891 0.500000
vt 0.962891 0.500000
vt 0.962891 0.500000
vt 0.845703 0.500000
vt 0.845703 0.500000
vt 0.845703 0.500000
vt 0.962891 0.500000
vt 0.845703 0.500000
vt 0.962891 0.500000
vt 0.962891 0.500000
vt 0.962891 0.500000
vt 0.845703 0.500000
vt 0.845703 0.500000
vt 0.845703 0.500000
vt 0.962891 0.500000
vt 0.845703 0.500000
vt 0.962891 0.500000
vt 0.962891 0.500000
vt 0.962891 0.500000
vt 0.962891 0.500000
vt 0.962891 0.500000
vt 0.845703 0.500000
vt 0.845703 0.500000
vt 0.845703 0.500000
vt 0.962891 0.500000
vt 0.845703 0.500000
vt 0.962891 0.500000
vt 0.962891 0.500000
vt 0.962891 0.500000
vt 0.845703 0.500000
vt 0.845703 0.500000
vt 0.845703 0.500000
vt 0.962891 0.500000
vt 0.845703 0.500000
vt 0.962891 0.500000
vt 0.962891 0.500000
vt 0.962891 0.500000
vt 0.845703 0.500000
vt 0.845703 0.500000
vt 0.845703 0.500000
vt 0.962891 0.500000
vt 0.845703 0.500000
vt 0.962891 0.500000
vt 0.962891 0.500000
vt 0.962891 0.500000
vt 0.962891 0.500000
vt 0.962891 0.500000
vt 0.962891 0.500000
vt 0.962891 0.500000
vt 0.962891 0.500000
vt 0.962891 0.500000
vt 0.962891 0.500000
vt 0.962891 0.500000
vt 0.962891 0.500000
vt 0.962891 0.500000
vt 0.962891 0.500000
vt 0.962891 0.500000
vt 0.962891 0.500000
vt 0.962891 0.500000
vt 0.962891 0.500000
vt 0.962891 0.500000
vt 0.962891 0.500000
vt 0.845703 0.500000
vt 0.845703 0.500000
vt 0.845703 0.500000
vt 0.845703 0.500000
vt 0.845703 0.500000
vt 0.845703 0.500000
vt 0.845703 0.500000
vt 0.845703 0.500000
vt 0.845703 0.500000
vt 0.845703 0.500000
vt 0.845703 0.500000
vt 0.845703 0.500000
vt 0.845703 0.500000
vt 0.845703 0.500000
vt 0.845703 0.500000
vt 0.845703 0.500000
vn -1.0000 0.0000 0.0000
vn 1.0000 0.0000 0.0000
vn 0.0000 -0.0000 1.0000
vn 0.0000 0.0000 -1.0000
vn 0.0000 -1.0000 -0.0000
vn 0.0000 1.0000 0.0000
usemtl palette.002
s 1
f 1/1/1 2/2/1 3/3/1
f 4/4/1 2/2/1 1/1/1
f 5/5/1 1/1/1 3/3/1
f 6/6/1 1/1/1 5/5/1
f 7/7/1 2/2/1 4/4/1
f 8/8/1 2/2/1 7/7/1
f 9/9/1 6/10/1 5/11/1
f 10/12/1 6/10/1 9/9/1
f 11/13/1 8/14/1 7/15/1
f 12/16/1 8/14/1 11/13/1
f 13/17/1 14/18/1 15/19/1
f 16/20/1 14/18/1 13/17/1
f 17/21/1 13/17/1 18/22/1
f 19/23/1 13/17/1 17/21/1
f 20/24/1 21/25/1 16/20/1
f 22/26/1 21/25/1 20/24/1
f 23/27/1 19/28/1 17/29/1
f 24/30/1 19/28/1 23/27/1
f 25/31/1 22/32/1 20/33/1
f 26/34/1 22/32/1 25/31/1
f 27/35/2 28/36/2 29/37/2
f 29/37/2 28/36/2 30/38/2
f 31/39/2 29/37/2 32/40/2
f 32/40/2 29/37/2 33/41/2
f 30/38/2 34/42/2 35/43/2
f 35/43/2 34/42/2 36/44/2
f 32/45/2 33/46/2 37/47/2
f 37/47/2 33/46/2 38/48/2
f 35/49/2 36/50/2 39/51/2
f 39/51/2 36/50/2 40/52/2
f 41/53/2 42/54/2 43/55/2
f 43/55/2 42/54/2 44/56/2
f 41/53/2 43/55/2 45/57/2
f 45/57/2 43/55/2 46/58/2
f 44/56/2 42/54/2 47/59/2
f 47/59/2 42/54/2 48/60/2
f 45/61/2 46/62/2 49/63/2
f 49/63/2 46/62/2 50/64/2
f 47/65/2 48/66/2 51/67/2
f 51/67/2 48/66/2 52/68/2
f 53/69/3 54/70/3 55/71/3
f 56/72/3 57/73/3 54/74/3
f 56/75/3 54/70/3 53/69/3
f 58/76/3 57/73/3 56/72/3
f 59/77/3 53/69/3 55/71/3
f 60/78/3 59/77/3 55/71/3
f 60/78/3 61/79/3 59/77/3
f 62/80/3 63/81/3 61/82/3
f 62/83/3 61/79/3 60/78/3
f 64/84/3 63/81/3 62/80/3
f 65/85/3 66/86/3 67/87/3
f 68/88/3 69/89/3 66/90/3
f 68/91/3 66/86/3 65/85/3
f 70/92/3 69/89/3 68/88/3
f 71/93/3 65/85/3 72/94/3
f 73/95/3 65/85/3 71/93/3
f 74/96/3 75/97/3 73/95/3
f 76/98/3 77/99/3 75/100/3
f 76/101/3 75/97/3 74/96/3
f 78/102/3 77/99/3 76/98/3
f 79/103/4 80/104/4 81/105/4
f 80/106/4 82/107/4 83/108/4
f 81/105/4 80/104/4 83/109/4
f 83/108/4 82/107/4 84/110/4
f 85/111/4 81/105/4 86/112/4
f 86/112/4 81/105/4 87/113/4
f 87/113/4 88/114/4 89/115/4
f 88/116/4 90/117/4 91/118/4
f 89/115/4 88/114/4 91/119/4
f 91/118/4 90/117/4 92/120/4
f 93/121/4 94/122/4 95/123/4
f 94/124/4 96/125/4 97/126/4
f 95/123/4 94/122/4 97/127/4
f 97/126/4 96/125/4 98/128/4
f 93/121/4 95/123/4 99/129/4
f 93/121/4 99/129/4 100/130/4
f 99/129/4 101/131/4 100/130/4
f 101/132/4 102/133/4 103/134/4
f 100/130/4 101/131/4 103/135/4
f 103/134/4 102/133/4 104/136/4
f 105/137/5 106/138/5 107/139/5
f 108/140/5 106/138/5 105/137/5
f 109/141/5 105/137/5 107/139/5
f 110/142/5 106/138/5 108/140/5
f 111/143/5 109/141/5 107/139/5
f 111/143/5 110/142/5 109/141/5
f 112/144/5 106/138/5 110/142/5
f 112/144/5 110/142/5 111/143/5
f 113/145/6 114/146/6 115/147/6
f 115/147/6 114/146/6 116/148/6
f 117/149/6 115/147/6 118/150/6
f 118/150/6 115/147/6 119/151/6
f 116/148/6 120/152/6 121/153/6
f 121/153/6 120/152/6 122/154/6
f 119/151/6 121/153/6 123/155/6
f 123/155/6 121/153/6 124/156/6
f 125/157/6 126/158/6 127/159/6
f 127/159/6 126/158/6 128/160/6
f 129/161/6 130/162/6 131/163/6
f 131/163/6 130/162/6 132/164/6
f 133/165/6 134/166/6 135/167/6
f 135/167/6 134/166/6 136/168/6
f 137/169/6 138/170/6 139/171/6
f 139/171/6 138/170/6 140/172/6
