# Blender v2.81 (sub 16) OBJ File: 'object_form.blend'
# www.blender.org
mtllib ob3.mtl
o ob3_ObjObject.003
v -0.150000 0.100000 0.150000
v -0.150000 0.000000 -0.150000
v -0.150000 0.000000 0.150000
v -0.150000 0.100000 -0.050000
v -0.150000 0.300000 -0.050000
v -0.150000 0.300000 -0.150000
v 0.050000 0.200000 0.050000
v 0.050000 0.100000 0.050000
v 0.050000 0.100000 0.150000
v 0.050000 0.100000 -0.050000
v 0.050000 0.200000 -0.050000
v 0.050000 0.300000 0.150000
v 0.050000 0.300000 -0.050000
v 0.150000 0.000000 0.150000
v 0.150000 0.000000 -0.150000
v 0.150000 0.100000 0.050000
v 0.150000 0.100000 -0.050000
v 0.150000 0.200000 0.050000
v 0.150000 0.200000 -0.050000
v 0.150000 0.300000 0.150000
v 0.150000 0.300000 -0.150000
v 0.050000 0.100000 0.150000
v -0.150000 0.100000 0.150000
v -0.150000 0.000000 0.150000
v 0.150000 0.000000 0.150000
v 0.050000 0.300000 0.150000
v 0.150000 0.300000 0.150000
v -0.050000 0.100000 -0.050000
v -0.150000 0.300000 -0.050000
v -0.150000 0.100000 -0.050000
v -0.050000 0.200000 -0.050000
v 0.050000 0.100000 -0.050000
v 0.050000 0.200000 -0.050000
v 0.050000 0.300000 -0.050000
v -0.150000 0.000000 -0.150000
v -0.150000 0.300000 -0.150000
v -0.050000 0.100000 -0.150000
v -0.050000 0.200000 -0.150000
v 0.050000 0.100000 -0.150000
v 0.050000 0.200000 -0.150000
v 0.150000 0.000000 -0.150000
v 0.150000 0.300000 -0.150000
v -0.050000 0.000000 0.050000
v 0.150000 0.000000 0.150000
v -0.150000 0.000000 0.150000
v 0.050000 0.000000 0.050000
v -0.050000 0.000000 -0.050000
v 0.050000 0.000000 -0.050000
v -0.150000 0.000000 -0.150000
v 0.150000 0.000000 -0.150000
v -0.150000 0.100000 0.150000
v 0.050000 0.100000 0.150000
v -0.050000 0.100000 0.050000
v 0.050000 0.100000 0.050000
v -0.150000 0.100000 -0.050000
v -0.050000 0.100000 -0.050000
v 0.050000 0.100000 -0.050000
v 0.050000 0.300000 0.150000
v 0.150000 0.300000 0.150000
v 0.050000 0.300000 -0.050000
v -0.150000 0.300000 -0.050000
v -0.150000 0.300000 -0.150000
v 0.150000 0.300000 -0.150000
vt 0.662109 0.500000
vt 0.662109 0.500000
vt 0.662109 0.500000
vt 0.662109 0.500000
vt 0.662109 0.500000
vt 0.662109 0.500000
vt 0.662109 0.500000
vt 0.662109 0.500000
vt 0.662109 0.500000
vt 0.748047 0.500000
vt 0.748047 0.500000
vt 0.748047 0.500000
vt 0.748047 0.500000
vt 0.662109 0.500000
vt 0.662109 0.500000
vt 0.662109 0.500000
vt 0.662109 0.500000
vt 0.662109 0.500000
vt 0.662109 0.500000
vt 0.662109 0.500000
vt 0.662109 0.500000
vt 0.748047 0.500000
vt 0.748047 0.500000
vt 0.748047 0.500000
vt 0.662109 0.500000
vt 0.748047 0.500000
vt 0.662109 0.500000
vt 0.662109 0.500000
vt 0.662109 0.500000
vt 0.662109 0.500000
vt 0.662109 0.500000
vt 0.662109 0.500000
vt 0.662109 0.500000
vt 0.662109 0.500000
vt 0.662109 0.500000
vt 0.662109 0.500000
vt 0.662109 0.500000
vt 0.662109 0.500000
vt 0.748047 0.500000
vt 0.748047 0.500000
vt 0.748047 0.500000
vt 0.662109 0.500000
vt 0.748047 0.500000
vt 0.662109 0.500000
vt 0.662109 0.500000
vt 0.662109 0.500000
vt 0.662109 0.500000
vt 0.662109 0.500000
vt 0.662109 0.500000
vt 0.748047 0.500000
vt 0.748047 0.500000
vt 0.748047 0.500000
vt 0.662109 0.500000
vt 0.748047 0.500000
vt 0.662109 0.500000
vt 0.662109 0.500000
vt 0.662109 0.500000
vt 0.662109 0.500000
vt 0.662109 0.500000
vt 0.662109 0.500000
vt 0.662109 0.500000
vt 0.748047 0.500000
vt 0.748047 0.500000
vt 0.748047 0.500000
vt 0.662109 0.500000
vt 0.748047 0.500000
vt 0.662109 0.500000
vt 0.662109 0.500000
vt 0.662109 0.500000
vt 0.662109 0.500000
vt 0.662109 0.500000
vt 0.662109 0.500000
vt 0.662109 0.500000
vt 0.748047 0.500000
vt 0.748047 0.500000
vt 0.748047 0.500000
vt 0.662109 0.500000
vt 0.748047 0.500000
vt 0.662109 0.500000
vt 0.662109 0.500000
vt 0.662109 0.500000
vt 0.662109 0.500000
vt 0.662109 0.500000
vt 0.662109 0.500000
vn -1.0000 0.0000 0.0000
vn 1.0000 0.0000 0.0000
vn 0.0000 -0.0000 1.0000
vn -0.0000 0.0000 -1.0000
vn 0.0000 -1.0000 -0.0000
vn -0.0000 1.0000 0.0000
usemtl palette.005
s 1
f 1/1/1 2/2/1 3/3/1
f 4/4/1 2/2/1 1/1/1
f 5/5/1 2/2/1 4/4/1
f 6/6/1 2/2/1 5/5/1
f 7/7/1 8/8/1 9/9/1
f 7/10/1 10/11/1 8/12/1
f 11/13/1 10/11/1 7/10/1
f 12/14/1 7/7/1 9/9/1
f 12/14/1 11/15/1 7/7/1
f 13/16/1 11/15/1 12/14/1
f 14/17/2 15/18/2 16/19/2
f 16/19/2 15/18/2 17/20/2
f 14/17/2 16/19/2 18/21/2
f 16/22/2 17/23/2 18/24/2
f 17/20/2 15/18/2 19/25/2
f 18/24/2 17/23/2 19/26/2
f 14/17/2 18/21/2 20/27/2
f 18/21/2 19/25/2 20/27/2
f 19/25/2 15/18/2 21/28/2
f 20/27/2 19/25/2 21/28/2
f 22/29/3 23/30/3 24/31/3
f 25/32/3 22/29/3 24/31/3
f 25/32/3 26/33/3 22/29/3
f 27/34/3 26/33/3 25/32/3
f 28/35/3 29/36/3 30/37/3
f 31/38/3 29/36/3 28/35/3
f 32/39/3 31/40/3 28/41/3
f 33/42/3 29/36/3 31/38/3
f 33/43/3 31/40/3 32/39/3
f 34/44/3 29/36/3 33/42/3
f 35/45/4 36/46/4 37/47/4
f 37/47/4 36/46/4 38/48/4
f 35/45/4 37/47/4 39/49/4
f 37/50/4 38/51/4 39/52/4
f 38/48/4 36/46/4 40/53/4
f 39/52/4 38/51/4 40/54/4
f 35/45/4 39/49/4 41/55/4
f 39/49/4 40/53/4 41/55/4
f 40/53/4 36/46/4 42/56/4
f 41/55/4 40/53/4 42/56/4
f 43/57/5 44/58/5 45/59/5
f 46/60/5 44/58/5 43/57/5
f 47/61/5 43/57/5 45/59/5
f 47/62/5 46/63/5 43/64/5
f 48/65/5 44/58/5 46/60/5
f 48/66/5 46/63/5 47/62/5
f 49/67/5 47/61/5 45/59/5
f 49/67/5 48/65/5 47/61/5
f 50/68/5 44/58/5 48/65/5
f 50/68/5 48/65/5 49/67/5
f 51/69/6 52/70/6 53/71/6
f 53/71/6 52/70/6 54/72/6
f 51/69/6 53/71/6 55/73/6
f 53/74/6 54/75/6 56/76/6
f 55/73/6 53/71/6 56/77/6
f 56/76/6 54/75/6 57/78/6
f 58/79/6 59/80/6 60/81/6
f 61/82/6 60/81/6 62/83/6
f 60/81/6 59/80/6 63/84/6
f 62/83/6 60/81/6 63/84/6
