# Blender v2.81 (sub 16) OBJ File: 'gcubes.blend'
# www.blender.org
mtllib ob5.mtl
o ob5_ObjObject.007
v -0.150000 0.100000 0.050000
v -0.150000 0.000000 -0.050000
v -0.150000 0.000000 0.050000
v -0.150000 0.100000 -0.050000
v -0.150000 0.200000 0.150000
v -0.150000 0.100000 0.150000
v -0.150000 0.200000 0.050000
v -0.150000 0.200000 -0.050000
v -0.150000 0.100000 -0.150000
v -0.150000 0.200000 -0.150000
v -0.150000 0.300000 0.050000
v -0.150000 0.300000 -0.050000
v -0.050000 0.100000 0.150000
v -0.050000 0.000000 0.050000
v -0.050000 0.000000 0.150000
v -0.050000 0.100000 0.050000
v -0.050000 0.100000 -0.050000
v -0.050000 0.000000 -0.150000
v -0.050000 0.000000 -0.050000
v -0.050000 0.100000 -0.150000
v -0.050000 0.300000 0.150000
v -0.050000 0.200000 0.050000
v -0.050000 0.200000 0.150000
v -0.050000 0.300000 0.050000
v -0.050000 0.300000 -0.050000
v -0.050000 0.200000 -0.150000
v -0.050000 0.200000 -0.050000
v -0.050000 0.300000 -0.150000
v 0.050000 0.000000 0.150000
v 0.050000 0.000000 0.050000
v 0.050000 0.100000 0.150000
v 0.050000 0.100000 0.050000
v 0.050000 0.000000 -0.050000
v 0.050000 0.000000 -0.150000
v 0.050000 0.100000 -0.050000
v 0.050000 0.100000 -0.150000
v 0.050000 0.200000 0.150000
v 0.050000 0.200000 0.050000
v 0.050000 0.300000 0.150000
v 0.050000 0.300000 0.050000
v 0.050000 0.200000 -0.050000
v 0.050000 0.200000 -0.150000
v 0.050000 0.300000 -0.050000
v 0.050000 0.300000 -0.150000
v 0.150000 0.000000 0.050000
v 0.150000 0.000000 -0.050000
v 0.150000 0.100000 0.050000
v 0.150000 0.100000 -0.050000
v 0.150000 0.100000 0.150000
v 0.150000 0.200000 0.150000
v 0.150000 0.200000 0.050000
v 0.150000 0.100000 -0.150000
v 0.150000 0.200000 -0.050000
v 0.150000 0.200000 -0.150000
v 0.150000 0.300000 0.050000
v 0.150000 0.300000 -0.050000
v -0.050000 0.100000 0.150000
v -0.150000 0.200000 0.150000
v -0.150000 0.100000 0.150000
v -0.050000 0.200000 0.150000
v 0.050000 0.000000 0.150000
v -0.050000 0.000000 0.150000
v -0.050000 0.300000 0.150000
v 0.050000 0.100000 0.150000
v 0.050000 0.200000 0.150000
v 0.050000 0.300000 0.150000
v 0.150000 0.100000 0.150000
v 0.150000 0.200000 0.150000
v -0.050000 0.000000 0.050000
v -0.150000 0.100000 0.050000
v -0.150000 0.000000 0.050000
v -0.050000 0.100000 0.050000
v -0.050000 0.200000 0.050000
v -0.150000 0.300000 0.050000
v -0.150000 0.200000 0.050000
v -0.050000 0.300000 0.050000
v 0.150000 0.000000 0.050000
v 0.050000 0.100000 0.050000
v 0.050000 0.000000 0.050000
v 0.150000 0.100000 0.050000
v 0.150000 0.200000 0.050000
v 0.050000 0.300000 0.050000
v 0.050000 0.200000 0.050000
v 0.150000 0.300000 0.050000
v -0.150000 0.000000 -0.050000
v -0.150000 0.100000 -0.050000
v -0.050000 0.000000 -0.050000
v -0.050000 0.100000 -0.050000
v -0.150000 0.200000 -0.050000
v -0.150000 0.300000 -0.050000
v -0.050000 0.200000 -0.050000
v -0.050000 0.300000 -0.050000
v 0.050000 0.000000 -0.050000
v 0.050000 0.100000 -0.050000
v 0.150000 0.000000 -0.050000
v 0.150000 0.100000 -0.050000
v 0.050000 0.200000 -0.050000
v 0.050000 0.300000 -0.050000
v 0.150000 0.200000 -0.050000
v 0.150000 0.300000 -0.050000
v -0.150000 0.100000 -0.150000
v -0.150000 0.200000 -0.150000
v -0.050000 0.100000 -0.150000
v -0.050000 0.200000 -0.150000
v -0.050000 0.000000 -0.150000
v 0.050000 0.000000 -0.150000
v -0.050000 0.300000 -0.150000
v 0.050000 0.100000 -0.150000
v 0.050000 0.200000 -0.150000
v 0.050000 0.300000 -0.150000
v 0.150000 0.100000 -0.150000
v 0.150000 0.200000 -0.150000
v -0.050000 0.000000 0.050000
v 0.050000 0.000000 0.150000
v -0.050000 0.000000 0.150000
v 0.050000 0.000000 0.050000
v -0.150000 0.000000 -0.050000
v -0.150000 0.000000 0.050000
v -0.050000 0.000000 -0.050000
v 0.050000 0.000000 -0.050000
v 0.150000 0.000000 0.050000
v 0.150000 0.000000 -0.050000
v -0.050000 0.000000 -0.150000
v 0.050000 0.000000 -0.150000
v -0.150000 0.100000 0.050000
v -0.050000 0.100000 0.150000
v -0.150000 0.100000 0.150000
v -0.050000 0.100000 0.050000
v 0.050000 0.100000 0.050000
v 0.150000 0.100000 0.150000
v 0.050000 0.100000 0.150000
v 0.150000 0.100000 0.050000
v -0.150000 0.100000 -0.150000
v -0.050000 0.100000 -0.050000
v -0.150000 0.100000 -0.050000
v -0.050000 0.100000 -0.150000
v 0.050000 0.100000 -0.150000
v 0.150000 0.100000 -0.050000
v 0.050000 0.100000 -0.050000
v 0.150000 0.100000 -0.150000
v -0.150000 0.200000 0.150000
v -0.050000 0.200000 0.150000
v -0.150000 0.200000 0.050000
v -0.050000 0.200000 0.050000
v 0.050000 0.200000 0.150000
v 0.150000 0.200000 0.150000
v 0.050000 0.200000 0.050000
v 0.150000 0.200000 0.050000
v -0.150000 0.200000 -0.050000
v -0.050000 0.200000 -0.050000
v -0.150000 0.200000 -0.150000
v -0.050000 0.200000 -0.150000
v 0.050000 0.200000 -0.050000
v 0.150000 0.200000 -0.050000
v 0.050000 0.200000 -0.150000
v 0.150000 0.200000 -0.150000
v -0.050000 0.300000 0.150000
v 0.050000 0.300000 0.150000
v -0.050000 0.300000 0.050000
v 0.050000 0.300000 0.050000
v -0.150000 0.300000 0.050000
v -0.150000 0.300000 -0.050000
v -0.050000 0.300000 -0.050000
v 0.150000 0.300000 0.050000
v 0.050000 0.300000 -0.050000
v 0.150000 0.300000 -0.050000
v -0.050000 0.300000 -0.150000
v 0.050000 0.300000 -0.150000
vt 0.978516 0.500000
vt 0.978516 0.500000
vt 0.978516 0.500000
vt 0.978516 0.500000
vt 0.017578 0.500000
vt 0.017578 0.500000
vt 0.017578 0.500000
vt 0.978516 0.500000
vt 0.017578 0.500000
vt 0.017578 0.500000
vt 0.017578 0.500000
vt 0.017578 0.500000
vt 0.978516 0.500000
vt 0.017578 0.500000
vt 0.978516 0.500000
vt 0.978516 0.500000
vt 0.978516 0.500000
vt 0.978516 0.500000
vt 0.978516 0.500000
vt 0.978516 0.500000
vt 0.978516 0.500000
vt 0.978516 0.500000
vt 0.978516 0.500000
vt 0.978516 0.500000
vt 0.978516 0.500000
vt 0.978516 0.500000
vt 0.978516 0.500000
vt 0.978516 0.500000
vt 0.978516 0.500000
vt 0.978516 0.500000
vt 0.978516 0.500000
vt 0.978516 0.500000
vt 0.978516 0.500000
vt 0.978516 0.500000
vt 0.978516 0.500000
vt 0.978516 0.500000
vt 0.978516 0.500000
vt 0.978516 0.500000
vt 0.978516 0.500000
vt 0.978516 0.500000
vt 0.978516 0.500000
vt 0.978516 0.500000
vt 0.978516 0.500000
vt 0.978516 0.500000
vt 0.978516 0.500000
vt 0.978516 0.500000
vt 0.978516 0.500000
vt 0.978516 0.500000
vt 0.978516 0.500000
vt 0.978516 0.500000
vt 0.978516 0.500000
vt 0.978516 0.500000
vt 0.017578 0.500000
vt 0.017578 0.500000
vt 0.017578 0.500000
vt 0.978516 0.500000
vt 0.017578 0.500000
vt 0.017578 0.500000
vt 0.017578 0.500000
vt 0.017578 0.500000
vt 0.978516 0.500000
vt 0.017578 0.500000
vt 0.978516 0.500000
vt 0.978516 0.500000
vt 0.017578 0.500000
vt 0.017578 0.500000
vt 0.017578 0.500000
vt 0.017578 0.500000
vt 0.978516 0.500000
vt 0.978516 0.500000
vt 0.978516 0.500000
vt 0.978516 0.500000
vt 0.978516 0.500000
vt 0.978516 0.500000
vt 0.978516 0.500000
vt 0.978516 0.500000
vt 0.017578 0.500000
vt 0.017578 0.500000
vt 0.017578 0.500000
vt 0.017578 0.500000
vt 0.978516 0.500000
vt 0.978516 0.500000
vt 0.978516 0.500000
vt 0.978516 0.500000
vt 0.978516 0.500000
vt 0.978516 0.500000
vt 0.978516 0.500000
vt 0.978516 0.500000
vt 0.978516 0.500000
vt 0.978516 0.500000
vt 0.978516 0.500000
vt 0.978516 0.500000
vt 0.978516 0.500000
vt 0.978516 0.500000
vt 0.978516 0.500000
vt 0.978516 0.500000
vt 0.978516 0.500000
vt 0.978516 0.500000
vt 0.978516 0.500000
vt 0.978516 0.500000
vt 0.978516 0.500000
vt 0.978516 0.500000
vt 0.978516 0.500000
vt 0.978516 0.500000
vt 0.978516 0.500000
vt 0.978516 0.500000
vt 0.978516 0.500000
vt 0.978516 0.500000
vt 0.978516 0.500000
vt 0.978516 0.500000
vt 0.978516 0.500000
vt 0.978516 0.500000
vt 0.017578 0.500000
vt 0.017578 0.500000
vt 0.017578 0.500000
vt 0.017578 0.500000
vt 0.978516 0.500000
vt 0.978516 0.500000
vt 0.978516 0.500000
vt 0.978516 0.500000
vt 0.978516 0.500000
vt 0.978516 0.500000
vt 0.978516 0.500000
vt 0.978516 0.500000
vt 0.017578 0.500000
vt 0.017578 0.500000
vt 0.017578 0.500000
vt 0.017578 0.500000
vt 0.978516 0.500000
vt 0.978516 0.500000
vt 0.978516 0.500000
vt 0.978516 0.500000
vt 0.978516 0.500000
vt 0.978516 0.500000
vt 0.017578 0.500000
vt 0.017578 0.500000
vt 0.017578 0.500000
vt 0.978516 0.500000
vt 0.978516 0.500000
vt 0.978516 0.500000
vt 0.017578 0.500000
vt 0.978516 0.500000
vt 0.978516 0.500000
vt 0.978516 0.500000
vt 0.017578 0.500000
vt 0.017578 0.500000
vt 0.017578 0.500000
vt 0.017578 0.500000
vt 0.017578 0.500000
vt 0.017578 0.500000
vt 0.017578 0.500000
vt 0.017578 0.500000
vt 0.017578 0.500000
vt 0.017578 0.500000
vt 0.017578 0.500000
vt 0.017578 0.500000
vt 0.017578 0.500000
vt 0.017578 0.500000
vt 0.017578 0.500000
vt 0.017578 0.500000
vt 0.017578 0.500000
vt 0.017578 0.500000
vt 0.017578 0.500000
vt 0.017578 0.500000
vt 0.017578 0.500000
vt 0.017578 0.500000
vt 0.017578 0.500000
vt 0.017578 0.500000
vt 0.017578 0.500000
vt 0.017578 0.500000
vt 0.017578 0.500000
vt 0.017578 0.500000
vt 0.017578 0.500000
vt 0.017578 0.500000
vt 0.017578 0.500000
vt 0.017578 0.500000
vt 0.978516 0.500000
vt 0.978516 0.500000
vt 0.978516 0.500000
vt 0.978516 0.500000
vt 0.978516 0.500000
vt 0.978516 0.500000
vt 0.017578 0.500000
vt 0.017578 0.500000
vt 0.017578 0.500000
vt 0.978516 0.500000
vt 0.978516 0.500000
vt 0.978516 0.500000
vt 0.017578 0.500000
vt 0.978516 0.500000
vt 0.978516 0.500000
vt 0.978516 0.500000
vn -1.0000 0.0000 0.0000
vn 1.0000 0.0000 0.0000
vn 0.0000 -0.0000 1.0000
vn 0.0000 0.0000 -1.0000
vn 0.0000 -1.0000 0.0000
vn 0.0000 1.0000 0.0000
usemtl palette.008
s 1
f 1/1/1 2/2/1 3/3/1
f 4/4/1 2/2/1 1/1/1
f 5/5/1 1/6/1 6/7/1
f 7/8/1 4/4/1 1/1/1
f 7/9/1 1/6/1 5/5/1
f 8/10/1 9/11/1 4/12/1
f 8/13/1 4/4/1 7/8/1
f 10/14/1 9/11/1 8/10/1
f 11/15/1 8/13/1 7/8/1
f 12/16/1 8/13/1 11/15/1
f 13/17/1 14/18/1 15/19/1
f 16/20/1 14/18/1 13/17/1
f 17/21/1 18/22/1 19/23/1
f 20/24/1 18/22/1 17/21/1
f 21/25/1 22/26/1 23/27/1
f 24/28/1 22/26/1 21/25/1
f 25/29/1 26/30/1 27/31/1
f 28/32/1 26/30/1 25/29/1
f 29/33/2 30/34/2 31/35/2
f 31/35/2 30/34/2 32/36/2
f 33/37/2 34/38/2 35/39/2
f 35/39/2 34/38/2 36/40/2
f 37/41/2 38/42/2 39/43/2
f 39/43/2 38/42/2 40/44/2
f 41/45/2 42/46/2 43/47/2
f 43/47/2 42/46/2 44/48/2
f 45/49/2 46/50/2 47/51/2
f 47/51/2 46/50/2 48/52/2
f 49/53/2 47/54/2 50/55/2
f 47/51/2 48/52/2 51/56/2
f 50/55/2 47/54/2 51/57/2
f 48/58/2 52/59/2 53/60/2
f 51/56/2 48/52/2 53/61/2
f 53/60/2 52/59/2 54/62/2
f 51/56/2 53/61/2 55/63/2
f 55/63/2 53/61/2 56/64/2
f 57/65/3 58/66/3 59/67/3
f 60/68/3 58/66/3 57/65/3
f 61/69/3 57/70/3 62/71/3
f 61/69/3 63/72/3 60/73/3
f 61/69/3 60/73/3 57/70/3
f 64/74/3 63/72/3 61/69/3
f 65/75/3 63/72/3 64/74/3
f 66/76/3 63/72/3 65/75/3
f 67/77/3 65/78/3 64/79/3
f 68/80/3 65/78/3 67/77/3
f 69/81/3 70/82/3 71/83/3
f 72/84/3 70/82/3 69/81/3
f 73/85/3 74/86/3 75/87/3
f 76/88/3 74/86/3 73/85/3
f 77/89/3 78/90/3 79/91/3
f 80/92/3 78/90/3 77/89/3
f 81/93/3 82/94/3 83/95/3
f 84/96/3 82/94/3 81/93/3
f 85/97/4 86/98/4 87/99/4
f 87/99/4 86/98/4 88/100/4
f 89/101/4 90/102/4 91/103/4
f 91/103/4 90/102/4 92/104/4
f 93/105/4 94/106/4 95/107/4
f 95/107/4 94/106/4 96/108/4
f 97/109/4 98/110/4 99/111/4
f 99/111/4 98/110/4 100/112/4
f 101/113/4 102/114/4 103/115/4
f 103/115/4 102/114/4 104/116/4
f 105/117/4 103/118/4 106/119/4
f 104/120/4 107/121/4 106/119/4
f 103/118/4 104/120/4 106/119/4
f 106/119/4 107/121/4 108/122/4
f 108/122/4 107/121/4 109/123/4
f 109/123/4 107/121/4 110/124/4
f 108/125/4 109/126/4 111/127/4
f 111/127/4 109/126/4 112/128/4
f 113/129/5 114/130/5 115/131/5
f 116/132/5 114/130/5 113/129/5
f 117/133/5 113/129/5 118/134/5
f 119/135/5 116/136/5 113/137/5
f 119/138/5 113/129/5 117/133/5
f 120/139/5 121/140/5 116/132/5
f 120/141/5 116/136/5 119/135/5
f 122/142/5 121/140/5 120/139/5
f 123/143/5 120/139/5 119/138/5
f 124/144/5 120/139/5 123/143/5
f 125/145/5 126/146/5 127/147/5
f 128/148/5 126/146/5 125/145/5
f 129/149/5 130/150/5 131/151/5
f 132/152/5 130/150/5 129/149/5
f 133/153/5 134/154/5 135/155/5
f 136/156/5 134/154/5 133/153/5
f 137/157/5 138/158/5 139/159/5
f 140/160/5 138/158/5 137/157/5
f 141/161/6 142/162/6 143/163/6
f 143/163/6 142/162/6 144/164/6
f 145/165/6 146/166/6 147/167/6
f 147/167/6 146/166/6 148/168/6
f 149/169/6 150/170/6 151/171/6
f 151/171/6 150/170/6 152/172/6
f 153/173/6 154/174/6 155/175/6
f 155/175/6 154/174/6 156/176/6
f 157/177/6 158/178/6 159/179/6
f 159/179/6 158/178/6 160/180/6
f 161/181/6 159/179/6 162/182/6
f 159/183/6 160/184/6 163/185/6
f 162/182/6 159/179/6 163/186/6
f 160/180/6 164/187/6 165/188/6
f 163/185/6 160/184/6 165/189/6
f 165/188/6 164/187/6 166/190/6
f 163/186/6 165/188/6 167/191/6
f 167/191/6 165/188/6 168/192/6
